HIERARCHY
ROOT Hips
{
  OFFSET 263.056 91.6644 -274.608
  CHANNELS 6 Xposition Yposition Zposition Zrotation Xrotation Yrotation
  JOINT LeftUpLeg
  {
    OFFSET 8.64259 1.95398 -2.38835
    CHANNELS 3 Zrotation Xrotation Yrotation
    JOINT LeftLeg
    {
      OFFSET 43.7702 0 0
      CHANNELS 3 Zrotation Xrotation Yrotation
      JOINT LeftFoot
      {
        OFFSET 40.6238 0 0
        CHANNELS 3 Zrotation Xrotation Yrotation
        JOINT LeftToeBase
        {
          OFFSET 12.7242 0 0
          CHANNELS 3 Zrotation Xrotation Yrotation
          End Site
          {
            OFFSET 0 0 0
          }
        }
      }
    }
  }
  JOINT RightUpLeg
  {
    OFFSET -8.2249 1.95398 -2.59336
    CHANNELS 3 Zrotation Xrotation Yrotation
    JOINT RightLeg
    {
      OFFSET 43.5653 0 0
      CHANNELS 3 Zrotation Xrotation Yrotation
      JOINT RightFoot
      {
        OFFSET 40.6238 0 0
        CHANNELS 3 Zrotation Xrotation Yrotation
        JOINT RightToeBase
        {
          OFFSET 12.7242 0 0
          CHANNELS 3 Zrotation Xrotation Yrotation
          End Site
          {
            OFFSET 0 0 0
          }
        }
      }
    }
  }
  JOINT Spine
  {
    OFFSET 0.165834 0.87714 6.61349
    CHANNELS 3 Zrotation Xrotation Yrotation
    JOINT Spine1
    {
      OFFSET 7.38963 1.71661e-005 0
      CHANNELS 3 Zrotation Xrotation Yrotation
      JOINT Spine2
      {
        OFFSET 11.9445 1.14441e-005 0
        CHANNELS 3 Zrotation Xrotation Yrotation
        JOINT Spine3
        {
          OFFSET 14.7254 4.19617e-005 0
          CHANNELS 3 Zrotation Xrotation Yrotation
          JOINT Spine4
          {
            OFFSET 10.9679 0 0
            CHANNELS 3 Zrotation Xrotation Yrotation
            JOINT RightShoulder
            {
              OFFSET 2.46616 -1.6653 3.69651
              CHANNELS 3 Zrotation Xrotation Yrotation
              JOINT RightArm
              {
                OFFSET 13.0012 0 0
                CHANNELS 3 Zrotation Xrotation Yrotation
                JOINT RightForeArm
                {
                  OFFSET 28.7848 1.52588e-005 0
                  CHANNELS 3 Zrotation Xrotation Yrotation
                  JOINT RightHand
                  {
                    OFFSET 26.5688 1.52588e-005 0
                    CHANNELS 3 Zrotation Xrotation Yrotation
                    End Site
                    {
                      OFFSET 0 0 0
                    }
                  }
                }
              }
            }
            JOINT LeftShoulder
            {
              OFFSET 2.38034 -1.29275 -3.7523
              CHANNELS 3 Zrotation Xrotation Yrotation
              JOINT LeftArm
              {
                OFFSET 16.3182 6.10352e-005 0
                CHANNELS 3 Zrotation Xrotation Yrotation
                JOINT LeftForeArm
                {
                  OFFSET 27.0901 0 0
                  CHANNELS 3 Zrotation Xrotation Yrotation
                  JOINT LeftHand
                  {
                    OFFSET 24.5451 1.52588e-005 0
                    CHANNELS 3 Zrotation Xrotation Yrotation
                    End Site
                    {
                      OFFSET 0 0 0
                    }
                  }
                }
              }
            }
            JOINT Neck
            {
              OFFSET 5.0226 -0.0266342 0
              CHANNELS 3 Zrotation Xrotation Yrotation
              JOINT Head
              {
                OFFSET 6.69364 2.86102e-005 0
                CHANNELS 3 Zrotation Xrotation Yrotation
                End Site
                {
                  OFFSET 0 0 0
                }
              }
            }
          }
        }
      }
    }
  }
}
MOTION
Frames:	17
Frame Time:	0.0416667
-223.386 79.6765 -213.053 88.8861 -16.1337 87.1378 -178.038 -17.113 108.235 -36.2927 47.0957 13.0958 55.0651 -4.68689 -0.254862 83.8973 45.3129 -18.7521 163.048 57.4035 78.7289 -70.314 12.4168 14.692 69.1507 -11.0642 -5.99126 174.702 -37.0749 -21.5389 -5.08927 7.91426 -90.1515 11.1138 -10.2008 0.687491 -0.517131 -10.1605 1.14049 -23.3658 -9.93084 -2.44156 -3.3532 -9.93084 -2.44157 77.246 -50.9219 -119.535 38.5542 -11.193 59.0336 -108.292 -14.2005 -83.9182 -76.6557 16.9365 -28.5779 -100.382 -40.2623 59.4486 -15.6523 -12.0325 11.3507 -21.3825 2.67423 -111.716 8.78622 9.03808 74.1355 11.942 6.67508 2.86929 3.42459 5.85919 1.05596 
-219.202 82.0509 -208.027 88.445 -28.9204 85.7733 178.799 -13.8105 98.2961 -46.0693 35.5035 9.66727 48.7341 -9.83826 -1.5552 31.6799 1.34629 24.6099 167.3 53.4842 86.028 -68.8378 10.3417 9.23883 73.6062 -9.63704 -4.70269 72.3705 4.95886 -1.9767 -3.72183 8.15382 -89.9963 10.6073 -7.41127 0.673068 -1.04301 -7.37441 1.00035 -23.7424 -7.26914 -1.59748 -3.72972 -7.26915 -1.59749 80.3885 -48.0145 -116.115 40.041 -9.66503 52.6307 -109.96 -34.0145 -95.0202 -99.6415 23.3135 -25.9766 -99.477 -36.9859 59.4033 -20.5447 -2.71701 10.0383 -1.71397 -3.36466 -113.458 20.4042 3.52229 17.0804 12.2256 6.55864 1.3803 5.69662 6.2404 2.68865 
-214.673 84.332 -202.707 85.2126 -45.0867 83.1101 -178.731 -0.0640208 90.0073 -62.1021 17.7969 3.3974 49.4091 -7.10685 2.47772 39.6281 12.6458 5.96314 172.895 48.8502 92.7102 -58.0105 10.4191 6.11863 67.2838 -4.23578 -2.3727 48.3813 1.47794 4.61705 -1.75561 7.99067 -89.8897 10.9018 -3.44435 0.545104 -0.765004 -3.41701 0.696335 -23.3346 -3.44866 -0.516498 -3.32197 -3.44867 -0.516504 80.554 -49.7713 -115.164 35.2279 -9.39891 46.258 -77.7505 -26.6751 -81.0689 -70.9526 33.4681 -54.0851 -100.929 -37.363 57.1998 -25.2607 7.65289 12.0734 12.7328 -9.40712 -102.59 23.6209 1.8256 3.85938 10.1083 5.78972 2.18562 7.47821 5.44069 3.16855 
-208 85.6205 -195.046 84.9095 -51.0151 84.5491 -176.16 14.3328 91.3968 -72.9708 10.5093 1.51333 51.079 -2.5183 5.66132 43.1251 17.9075 10.9649 171.663 39.8189 96.9817 -56.9936 11.1829 6.72427 76.8417 -5.82315 -2.67892 32.9351 0.0109024 10.657 -0.905577 8.14649 -90.1827 10.5817 -1.88762 -0.194501 -1.0878 -1.89434 -0.111204 -23.6334 -1.74186 -0.753007 -3.62076 -1.74187 -0.753013 80.1755 -49.6667 -115.767 31.5946 -11.5723 36.89 -44.6075 -15.0439 -73.5667 -38.8398 18.6252 -59.3476 -101.941 -38.6946 56.2204 -28.5494 8.81087 14.965 12.0471 -0.619301 -87.8692 23.8426 1.98142 4.51779 9.05691 5.49825 5.3496 9.00302 4.33749 1.31398 
-200.354 84.8458 -185.842 85.6335 -54.3661 87.2144 -176.759 28.4532 92.6194 -78.6569 8.70129 1.66084 54.6359 1.9326 10.1343 47.6141 23.3595 9.63012 171.315 32.6767 100.569 -61.7603 12.901 4.74299 83.4478 -9.09914 -3.64232 37.7992 0.742633 11.3904 -0.347049 8.41834 -90.569 10.0317 -0.950451 -1.05066 -1.63927 -0.995765 -1.00783 -24.1723 -0.590782 -1.28772 -4.15966 -0.590775 -1.28772 77.8218 -48.8981 -119.576 26.3628 -12.8167 26.2873 -25.6278 -6.99353 -73.2977 -19.531 3.45124 -27.0175 -103.14 -41.3607 55.6412 -31.2499 8.48855 18.115 11.2184 0.254482 -73.9694 26.0718 2.34732 5.22744 10.8395 5.50988 10.3507 9.35088 2.65153 -2.66162 
-192.682 83.8884 -176.496 84.2496 -60.9955 87.6877 -177.208 42.1189 95.3111 -76.4717 5.11855 1.77696 60.4773 4.47461 8.34604 46.2372 23.3282 15.5988 174.511 24.7618 102.306 -62.4019 12.7602 1.72821 87.6064 -12.6473 -4.52568 47.4965 2.08824 9.20805 0.700461 8.57289 -90.5294 9.73594 1.15667 -1.14502 -1.93498 1.10518 -1.19482 -24.4729 1.44735 -0.74444 -4.46023 1.44735 -0.744441 74.6766 -51.0435 -123.174 19.045 -14.8703 13.8459 -20.2479 3.25064 -75.1863 -8.26838 -0.878181 3.63089 -104.174 -41.4072 54.0712 -34.8316 8.17529 25.2749 9.14934 3.31565 -63.1804 32.4833 2.90487 5.15612 16.4326 4.46811 7.62402 4.64898 2.11247 -0.94394 
-184.899 83.101 -165.934 79.5308 -66.0657 80.3243 -176.409 52.1027 95.2394 -65.1459 1.79546 1.00733 61.9158 2.74632 6.41984 49.1805 27.033 14.4659 176.547 16.4527 98.0651 -60.8214 11.0761 -1.42826 87.6947 -13.6025 -4.84747 59.1011 3.14893 6.2093 1.42665 8.22101 -90.0268 10.438 2.82958 -0.304822 -1.22996 2.81342 -0.429169 -23.7892 2.79026 0.560357 -3.77653 2.79028 0.560359 79.0255 -46.1872 -118.955 22.2244 -17.4686 4.6046 -24.8567 7.2797 -84.1608 -26.146 -1.4957 2.10279 -101.538 -40.3006 57.6402 -44.4755 12.6698 36.3759 6.75269 4.39925 -61.5723 36.1896 3.26869 5.19392 16.4431 3.68222 7.91087 2.42697 1.2926 -1.15833 
-176.063 83.0078 -154.158 81.939 -69.8043 79.8558 -175.282 53.1739 96.8463 -45.8134 5.33088 -1.04618 55.412 -4.5557 3.01969 41.9237 18.6407 22.1907 177.592 5.60715 88.2934 -58.3899 0.127188 -5.14869 78.8557 -9.67794 -4.35448 68.4637 3.49446 3.53238 2.20759 8.0739 -89.548 10.7222 4.60459 0.477924 -0.940647 4.62115 0.274361 -23.5326 4.24776 1.84209 -3.51999 4.24774 1.84208 83.9733 -39.7682 -113.808 30.3624 -20.6886 0.802295 -30.0533 8.42473 -93.5923 -30.0259 -2.5318 5.81101 -97.6168 -36.1052 62.1089 -57.7335 14.4455 50.1739 6.73906 3.34549 -67.0622 31.4686 2.65446 4.572 15.6641 1.44944 6.13729 0.932388 -0.325877 -1.29714 
-165.859 84.1616 -140.383 85.5115 -69.734 80.2182 -173.757 45.2411 94.8315 -15.7829 10.5448 -2.5479 40.0085 -14.4075 -4.27158 35.746 8.50116 23.0291 173.832 -8.25922 81.4983 -47.0185 -10.2187 -7.48403 58.0049 -0.568616 -0.290221 70.6216 7.70501 15.9698 2.5421 7.88574 -88.9433 11.0709 5.55029 1.56759 -0.588806 5.61389 1.32108 -23.1926 4.82225 3.16623 -3.17989 4.82227 3.16622 86.9313 -32.7178 -111.562 40.3598 -26.4663 0.916547 -34.4587 17.4765 -102.494 -29.2773 -2.52994 6.1731 -94.3476 -29.369 64.853 -69.5876 10.7477 60.4572 7.57596 1.84482 -72.1988 31.3505 2.53207 4.26785 12.9881 -1.08306 2.26951 0.0301636 -1.66029 -1.30134 
-155.016 85.7288 -127.093 90.6308 -68.5049 85.6714 -172.325 40.8786 94.0258 -6.72787 5.36156 -4.13981 35.5089 -16.7461 -7.44787 38.1714 11.9214 17.1124 172.48 -17.1786 78.6928 -40.1098 -9.36577 -9.04203 39.3718 5.83673 5.78296 36.2855 0.539672 16.5209 2.65347 7.54787 -88.7457 11.7407 5.86647 1.89453 0.0820335 5.94413 1.63369 -22.5256 5.02558 3.57323 -2.51293 5.0256 3.57322 89.7348 -29.4428 -107.495 45.9921 -35.6996 1.16201 -34.4745 19.9786 -103.819 -30.8686 -2.87097 6.92602 -91.0993 -23.0913 68.3939 -75.1959 4.29232 64.8502 8.34734 1.1745 -74.4736 34.5773 2.51079 3.39844 7.653 -2.91633 -5.46863 0.190367 -1.66182 2.12796 
-144.663 85.2602 -115.198 91.2452 -66.2213 91.767 -171.609 40.7272 94.0156 -15.5246 16.4629 -4.43769 39.7359 -13.8413 -2.97491 37.6722 10.4084 7.31834 176.797 -11.4215 84.1442 -55.0052 11.6153 -7.35866 48.611 -0.342327 0.117352 38.8541 0.700722 5.07675 2.48056 7.05665 -89.2262 12.7498 5.29615 0.909783 1.0895 5.33104 0.675146 -21.5169 4.77742 2.46275 -1.50426 4.77743 2.46275 90.5719 -32.8646 -104.671 45.5788 -42.4059 2.0885 -30.4357 14.4534 -97.661 -37.3801 -3.32444 6.01347 -89.6938 -24.3124 71.7945 -68.837 -1.48342 62.5252 3.98333 -1.28822 -75.4271 34.9602 2.38975 2.9762 3.48855 -2.91576 -8.0105 2.64181 -1.36986 2.40451 
-136.401 85.7792 -104.008 96.9035 -62.3945 94.259 -170.573 39.41 87.6478 -35.5841 22.168 -5.59774 54.4551 -2.56294 7.18027 24.1936 -3.93429 -6.64836 173.133 2.07759 87.8977 -73.4014 24.7853 -4.68911 57.0718 -4.96252 -2.97395 43.8083 1.45889 7.11993 1.87798 7.49208 -89.0476 11.8674 4.18268 1.45433 0.202558 4.24267 1.26855 -22.3677 3.55215 2.6452 -2.35502 3.55215 2.64521 86.0079 -44.0135 -108.82 35.1454 -32.95 2.80898 -25.5254 4.47527 -85.8256 -33.0645 -2.34633 3.77307 -91.9523 -34.48 71.2328 -54.3797 -2.92387 49.6307 0.700552 -3.36941 -78.4726 38.105 3.13692 4.35905 7.84703 -2.7593 -3.20751 -0.155943 -2.09802 -1.74047 
-130.575 86.3937 -95.039 100.207 -56.5456 93.473 -172.618 34.69 81.6119 -45.347 21.4961 -3.84486 58.5359 3.23254 12.7648 31.6992 3.71771 -8.6874 170.152 19.3396 86.1353 -85.8153 20.9426 -2.70453 62.2389 -7.11764 -4.12236 49.4119 1.79194 4.38827 1.12479 7.8895 -88.78 11.065 2.80485 2.15758 -0.604478 2.89707 2.032 -23.1396 2.02701 2.90057 -3.12692 2.02702 2.90056 81.0766 -47.9976 -115.079 30.4504 -18.7981 5.34303 -13.3173 0.955849 -82.6509 -34.9066 -1.11391 -1.08125 -95.4876 -40.5838 67.456 -39.5913 3.63218 25.1204 3.73845 -3.25141 -85.0455 40.6268 3.85577 5.62652 7.02743 -2.9449 -3.28053 0.356487 -2.22533 0.105465 
-123.363 89.2146 -87.4986 98.7351 -51.7242 96.8216 -175.444 28.4642 84.143 -47.2107 22.6444 -1.58962 60.9649 7.64105 14.7877 38.8969 10.4797 -10.1564 170.802 38.1219 94.2427 -82.2444 11.7075 -0.916052 63.7897 -4.42464 -2.50574 56.3953 1.83649 0.769249 0.822341 7.93543 -89.2883 10.9869 1.96671 1.22881 -0.683126 2.01887 1.14105 -23.2203 1.50655 1.76304 -3.20764 1.50654 1.76304 85.7047 -40.6097 -110.537 30.5117 -12.1266 9.4134 -21.895 6.32135 -96.1791 -33.3039 -2.06386 2.77612 -99.8454 -40.127 60.213 -16.821 0.271417 -2.96496 5.77611 -5.0488 -94.1756 42.1291 4.35322 6.46218 4.58071 -3.21235 -5.90425 0.494831 -2.12927 -0.461786 
-117.243 94.0659 -80.2406 99.7483 -44.2659 100.435 -176.533 16.1816 89.6375 -38.376 28.4697 -0.030257 58.4662 5.85722 12.5162 43.8438 14.6094 -13.0082 170.793 53.0508 94.9389 -77.0701 11.0689 0.12074 66.8293 -3.51944 -1.89792 60.9622 1.46434 -2.45918 -0.60197 7.86188 -89.479 11.1578 -0.955713 1.13229 -0.513725 -0.904968 1.17325 -23.0469 -1.25185 0.792786 -3.03422 -1.25187 0.792778 91.2804 -30.895 -103.866 25.4366 -12.652 6.26887 -24.9681 14.0177 -109.946 -28.8689 -1.91436 3.34938 -96.6654 -28.8084 60.2176 -7.44825 -20.7989 -12.0192 6.76201 0.619066 -108.035 42.1421 4.31059 6.34829 0.610035 -0.865703 -8.65548 0.55954 0.477616 2.40019 
-109.161 101.269 -72.6473 102.225 -43.1908 106.998 -175.48 -5.4523 92.4026 -12.4561 30.6447 0.880624 45.0904 -4.15889 4.67955 47.9766 18.6223 -11.0998 167.788 62.8956 99.5975 -78.2559 10.1492 0.547169 69.1336 -3.47872 -1.81048 60.6661 1.73892 -1.09745 -1.19968 7.93405 -90.3319 11.0075 -2.54212 -0.419015 -0.660861 -2.55808 -0.306662 -23.2134 -2.29861 -1.16404 -3.20079 -2.29859 -1.16404 94.4524 -18.6496 -101.276 17.3942 -2.3662 4.96275 -25.0493 16.7771 -118.339 -28.4674 -1.94525 3.78111 -89.8239 -17.0721 68.2051 -7.77783 -37.5168 -17.3421 5.96999 5.47282 -116.281 48.6849 5.7682 7.84572 -4.92778 2.04006 -5.84398 4.20233 2.88839 4.43091 
-100.271 109.768 -64.6171 104.989 -45.1324 113.144 -170.849 -10.7687 98.4524 -9.55516 19.6025 3.54029 27.3953 -19.3529 -12.3132 22.1546 -6.62894 -3.68079 157.477 68.2745 110.557 -83.5083 8.78106 0.451663 70.5826 -4.39184 -2.23773 58.7071 2.22754 1.84325 -1.05807 7.97781 -91.0479 10.8952 -2.59108 -1.84054 -0.774326 -2.66956 -1.7247 -23.3117 -1.91832 -2.53407 -3.29908 -1.91831 -2.53407 96.7487 -7.02634 -99.6909 14.705 11.4804 6.69938 -25.8872 16.2664 -123.743 -22.6995 -1.83082 5.43992 -83.7136 -8.64317 79.8949 -10.1041 -44.2154 -23.8644 6.92673 6.89173 -117.513 46.786 5.24137 7.25471 -16.278 3.42589 -2.17889 12.1851 4.09068 4.82965 
